# xmcd
#
# Track frame offsets: 
#        182
#        13982
#        25982
#        36457
#        48532
#        61032
#        70757
#        82982
#        94282
#        104507
#        115282
#        127882
#        140857
#        155107
#        168557
#        180632
#        189957
#        199182
#        210782
#        223832
#
# Disc length: 3114 seconds
#
# Revision: 0
# Processed by: cddbd v1.5.2PL0 Copyright (c) Steve Scherf et al.
# Submitted via: ExactAudioCopy v0.99pb3
#
DISCID=270c2814
DTITLE=Eddie Holman - Eddie's My Name
DYEAR=1993
DGENRE=Soul
TTITLE0=This Can't Be True
TTITLE1=You Can Tell
TTITLE2=I Surrender
TTITLE3=Return To Me
TTITLE4=Don't Stop Now
TTITLE5=I'll Cry 1,000 Tears (Unreleased Version) 
TTITLE6=Where I'm Not Wanted 
TTITLE7=Hurt 
TTITLE8=Peace Of Mind
TTITLE9=Never Let Me Go
TTITLE10=Been So Long 
TTITLE11=Somewhere Waits A Lonely Girl 
TTITLE12=Eddie's My Name 
TTITLE13=Sweet Memories 
TTITLE14=Stay Mine For Heaven's Sake 
TTITLE15=Free Country 
TTITLE16=You Know That I Will 
TTITLE17=Am I A Loser
TTITLE18=I'm Not Gonna Give Up 
TTITLE19=I'll Cry 1,000 Tears (Released Version) 
EXTD=
EXTT0=
EXTT1=
EXTT2=
EXTT3=
EXTT4=
EXTT5=
EXTT6=
EXTT7=
EXTT8=
EXTT9=
EXTT10=
EXTT11=
EXTT12=
EXTT13=
EXTT14=
EXTT15=
EXTT16=
EXTT17=
EXTT18=
EXTT19=
PLAYORDER=
